# xmcd
#
# Track frame offsets:
#	150
#	12756
#	28806
#	43087
#	60237
#	76467
#	89073
#	105123
#	119404
#	136554
#	164034
#
# Disc length: 2203 seconds
#
# Revision: 0
# Processed by: cddbd v1.5.1PL2 Copyright (c) Steve Scherf et al.
# Submitted via: audiograbber 1.83.01
#
DISCID=8408990b
DTITLE=Various Artist - PR1512
DYEAR=1900
DGENRE=Karaoke
TTITLE0=Hill, Faith - Wild One
TTITLE1=Dunn, Holly - Daddy's Hands
TTITLE2=Yearwood, Trisha - XXX's and OOO's
TTITLE3=McBride, Martina - Wild Angels
TTITLE4=Carter, Deana - Did I Shave My Legs For This
TTITLE5=Hill, Faith - Wild One (Vocal)
TTITLE6=Dunn, Holly - Daddy's Hands (Vocal)
TTITLE7=Yearwood, Trisha - XXX's and OOO's (Vocal)
TTITLE8=McBride, Martina - Wild Angels (Vocal)
TTITLE9=Carter, Deana - Did I Shave My Legs For This (Vocal)
TTITLE10=Data - Data Track
EXTD=
EXTT0=
EXTT1=
EXTT2=
EXTT3=
EXTT4=
EXTT5=
EXTT6=
EXTT7=
EXTT8=
EXTT9=
EXTT10=
PLAYORDER=
